<?xml version="1.0" encoding="UTF-8" standalone="no"?>
<!DOCTYPE svg PUBLIC "-//W3C//DTD SVG 1.1//EN"
 "http://www.w3.org/Graphics/SVG/1.1/DTD/svg11.dtd">
<!-- Generated by graphviz version 2.44.1 (20200629.0846)
 -->
<!-- Title: G Pages: 1 -->
<svg width="500pt" height="263pt"
 viewBox="0.00 0.00 500.02 263.00" xmlns="http://www.w3.org/2000/svg" xmlns:xlink="http://www.w3.org/1999/xlink">
<g id="graph0" class="graph" transform="scale(1 1) rotate(0) translate(4 259)">
<title>G</title>
<polygon fill="white" stroke="transparent" points="-4,4 -4,-259 496.02,-259 496.02,4 -4,4"/>
<g id="clust1" class="cluster">
<title>cluster8463379536</title>
<path fill="bisque" stroke="#8b7d6b" stroke-width="2" d="M99.02,-64C99.02,-64 187.02,-64 187.02,-64 193.02,-64 199.02,-70 199.02,-76 199.02,-76 199.02,-127 199.02,-127 199.02,-133 193.02,-139 187.02,-139 187.02,-139 99.02,-139 99.02,-139 93.02,-139 87.02,-133 87.02,-127 87.02,-127 87.02,-76 87.02,-76 87.02,-70 93.02,-64 99.02,-64"/>
<text text-anchor="start" x="112.02" y="-124.8" font-family="Helvetica,sans-Serif" font-weight="bold" font-size="14.00">subfolder</text>
</g>
<!-- src/cli.ts -->
<g id="node1" class="node">
<title>src/cli.ts</title>
<path fill="#79cdcd" stroke="#79cdcd" d="M330.02,-255C330.02,-255 300.02,-255 300.02,-255 294.02,-255 288.02,-249 288.02,-243 288.02,-243 288.02,-231 288.02,-231 288.02,-225 294.02,-219 300.02,-219 300.02,-219 330.02,-219 330.02,-219 336.02,-219 342.02,-225 342.02,-231 342.02,-231 342.02,-243 342.02,-243 342.02,-249 336.02,-255 330.02,-255"/>
<text text-anchor="middle" x="315.02" y="-233.3" font-family="Helvetica,sans-Serif" font-size="14.00">cli.ts</text>
</g>
<!-- src/lib.ts -->
<g id="node2" class="node">
<title>src/lib.ts</title>
<path fill="#79cdcd" stroke="#79cdcd" d="M204.02,-183C204.02,-183 174.02,-183 174.02,-183 168.02,-183 162.02,-177 162.02,-171 162.02,-171 162.02,-159 162.02,-159 162.02,-153 168.02,-147 174.02,-147 174.02,-147 204.02,-147 204.02,-147 210.02,-147 216.02,-153 216.02,-159 216.02,-159 216.02,-171 216.02,-171 216.02,-177 210.02,-183 204.02,-183"/>
<text text-anchor="middle" x="189.02" y="-161.3" font-family="Helvetica,sans-Serif" font-size="14.00">lib.ts</text>
</g>
<!-- src/cli.ts&#45;&gt;src/lib.ts -->
<g id="edge1" class="edge">
<title>src/cli.ts&#45;&gt;src/lib.ts</title>
<path fill="none" stroke="#528b8b" stroke-width="2" d="M287.99,-220.98C269.68,-210.81 245.27,-197.25 225.27,-186.14"/>
<polygon fill="#528b8b" stroke="#528b8b" stroke-width="2" points="226.88,-183.03 216.44,-181.23 223.48,-189.15 226.88,-183.03"/>
</g>
<!-- fs -->
<g id="node6" class="node">
<title>fs</title>
<polygon fill="#cdc8b1" stroke="#8b8878" points="335.02,-108 285.02,-108 281.02,-104 281.02,-72 331.02,-72 335.02,-76 335.02,-108"/>
<polyline fill="none" stroke="#8b8878" points="331.02,-104 281.02,-104 "/>
<polyline fill="none" stroke="#8b8878" points="331.02,-104 331.02,-72 "/>
<polyline fill="none" stroke="#8b8878" points="331.02,-104 335.02,-108 "/>
<text text-anchor="middle" x="308.02" y="-86.3" font-family="Helvetica,sans-Serif" font-size="14.00">fs</text>
</g>
<!-- src/cli.ts&#45;&gt;fs -->
<g id="edge6" class="edge">
<title>src/cli.ts&#45;&gt;fs</title>
<path fill="none" stroke="#8b8878" stroke-width="1.5" stroke-dasharray="5,2" d="M307.12,-218.75C302.91,-208.58 298.16,-195.33 296.02,-183 292.22,-161.14 295.98,-136.17 300.27,-117.77"/>
<polygon fill="#8b8878" stroke="#8b8878" stroke-width="1.5" points="303.67,-118.57 302.73,-108.02 296.89,-116.86 303.67,-118.57"/>
</g>
<!-- child_process -->
<g id="node7" class="node">
<title>child_process</title>
<polygon fill="#cdc8b1" stroke="#8b8878" points="403.52,-183 308.52,-183 304.52,-179 304.52,-147 399.52,-147 403.52,-151 403.52,-183"/>
<polyline fill="none" stroke="#8b8878" points="399.52,-179 304.52,-179 "/>
<polyline fill="none" stroke="#8b8878" points="399.52,-179 399.52,-147 "/>
<polyline fill="none" stroke="#8b8878" points="399.52,-179 403.52,-183 "/>
<text text-anchor="middle" x="354.02" y="-161.3" font-family="Helvetica,sans-Serif" font-size="14.00">child_process</text>
</g>
<!-- src/cli.ts&#45;&gt;child_process -->
<g id="edge7" class="edge">
<title>src/cli.ts&#45;&gt;child_process</title>
<path fill="none" stroke="#8b8878" stroke-width="1.5" stroke-dasharray="5,2" d="M324.66,-218.7C329.14,-210.64 334.57,-200.89 339.54,-191.98"/>
<polygon fill="#8b8878" stroke="#8b8878" stroke-width="1.5" points="342.68,-193.54 344.49,-183.1 336.56,-190.14 342.68,-193.54"/>
</g>
<!-- argparse -->
<g id="node8" class="node">
<title>argparse</title>
<polygon fill="#cdc8b1" stroke="#8b8878" points="492.02,-183 426.02,-183 422.02,-179 422.02,-147 488.02,-147 492.02,-151 492.02,-183"/>
<polyline fill="none" stroke="#8b8878" points="488.02,-179 422.02,-179 "/>
<polyline fill="none" stroke="#8b8878" points="488.02,-179 488.02,-147 "/>
<polyline fill="none" stroke="#8b8878" points="488.02,-179 492.02,-183 "/>
<text text-anchor="middle" x="457.02" y="-161.3" font-family="Helvetica,sans-Serif" font-size="14.00">argparse</text>
</g>
<!-- src/cli.ts&#45;&gt;argparse -->
<g id="edge8" class="edge">
<title>src/cli.ts&#45;&gt;argparse</title>
<path fill="none" stroke="#8b8878" stroke-width="1.5" stroke-dasharray="5,2" d="M342.06,-222.67C362.23,-212.72 390.22,-198.93 413.52,-187.44"/>
<polygon fill="#8b8878" stroke="#8b8878" stroke-width="1.5" points="415.1,-190.56 422.53,-183 412.01,-184.28 415.1,-190.56"/>
</g>
<!-- src/shallower&#45;file.ts -->
<g id="node3" class="node">
<title>src/shallower&#45;file.ts</title>
<path fill="#79cdcd" stroke="#79cdcd" d="M112.02,-36C112.02,-36 26.02,-36 26.02,-36 20.02,-36 14.02,-30 14.02,-24 14.02,-24 14.02,-12 14.02,-12 14.02,-6 20.02,0 26.02,0 26.02,0 112.02,0 112.02,0 118.02,0 124.02,-6 124.02,-12 124.02,-12 124.02,-24 124.02,-24 124.02,-30 118.02,-36 112.02,-36"/>
<text text-anchor="middle" x="69.02" y="-14.3" font-family="Helvetica,sans-Serif" font-size="14.00">shallower&#45;file.ts</text>
</g>
<!-- src/lib.ts&#45;&gt;src/shallower&#45;file.ts -->
<g id="edge4" class="edge">
<title>src/lib.ts&#45;&gt;src/shallower&#45;file.ts</title>
<path fill="none" stroke="#528b8b" stroke-width="2" d="M161.83,-164.26C117.53,-164.03 32.82,-160.68 14.02,-139 -7.82,-113.82 -0.26,-94.12 14.02,-64 17.85,-55.91 23.93,-48.78 30.68,-42.73"/>
<polygon fill="#528b8b" stroke="#528b8b" stroke-width="2" points="33.26,-45.15 38.81,-36.13 28.84,-39.72 33.26,-45.15"/>
</g>
<!-- src/util.ts -->
<g id="node4" class="node">
<title>src/util.ts</title>
<path fill="#79cdcd" stroke="#79cdcd" d="M65.02,-108C65.02,-108 35.02,-108 35.02,-108 29.02,-108 23.02,-102 23.02,-96 23.02,-96 23.02,-84 23.02,-84 23.02,-78 29.02,-72 35.02,-72 35.02,-72 65.02,-72 65.02,-72 71.02,-72 77.02,-78 77.02,-84 77.02,-84 77.02,-96 77.02,-96 77.02,-102 71.02,-108 65.02,-108"/>
<text text-anchor="middle" x="50.02" y="-86.3" font-family="Helvetica,sans-Serif" font-size="14.00">util.ts</text>
</g>
<!-- src/lib.ts&#45;&gt;src/util.ts -->
<g id="edge2" class="edge">
<title>src/lib.ts&#45;&gt;src/util.ts</title>
<path fill="none" stroke="#528b8b" stroke-width="2" d="M161.58,-162.93C138.79,-160.85 106.42,-155.02 83.02,-139 74.8,-133.38 68.03,-124.99 62.8,-116.79"/>
<polygon fill="#528b8b" stroke="#528b8b" stroke-width="2" points="65.8,-114.98 57.74,-108.1 59.75,-118.5 65.8,-114.98"/>
</g>
<!-- src/subfolder/deeper&#45;file.ts -->
<g id="node5" class="node">
<title>src/subfolder/deeper&#45;file.ts</title>
<path fill="#79cdcd" stroke="#79cdcd" d="M178.52,-108C178.52,-108 107.52,-108 107.52,-108 101.52,-108 95.52,-102 95.52,-96 95.52,-96 95.52,-84 95.52,-84 95.52,-78 101.52,-72 107.52,-72 107.52,-72 178.52,-72 178.52,-72 184.52,-72 190.52,-78 190.52,-84 190.52,-84 190.52,-96 190.52,-96 190.52,-102 184.52,-108 178.52,-108"/>
<text text-anchor="middle" x="143.02" y="-86.3" font-family="Helvetica,sans-Serif" font-size="14.00">deeper&#45;file.ts</text>
</g>
<!-- src/lib.ts&#45;&gt;src/subfolder/deeper&#45;file.ts -->
<g id="edge3" class="edge">
<title>src/lib.ts&#45;&gt;src/subfolder/deeper&#45;file.ts</title>
<path fill="none" stroke="#528b8b" stroke-width="2" d="M178.11,-146.7C172.5,-137.79 165.54,-126.75 159.3,-116.85"/>
<polygon fill="#528b8b" stroke="#528b8b" stroke-width="2" points="162.13,-114.77 153.84,-108.18 156.21,-118.5 162.13,-114.77"/>
</g>
<!-- src/lib.ts&#45;&gt;fs -->
<g id="edge9" class="edge">
<title>src/lib.ts&#45;&gt;fs</title>
<path fill="none" stroke="#8b8878" stroke-width="1.5" stroke-dasharray="5,2" d="M216.34,-160.25C233.52,-156.86 255.49,-150.55 272.02,-139 280.29,-133.22 287.46,-124.93 293.18,-116.87"/>
<polygon fill="#8b8878" stroke="#8b8878" stroke-width="1.5" points="296.22,-118.61 298.79,-108.33 290.37,-114.76 296.22,-118.61"/>
</g>
<!-- path -->
<g id="node9" class="node">
<title>path</title>
<polygon fill="#cdc8b1" stroke="#8b8878" points="263.02,-108 213.02,-108 209.02,-104 209.02,-72 259.02,-72 263.02,-76 263.02,-108"/>
<polyline fill="none" stroke="#8b8878" points="259.02,-104 209.02,-104 "/>
<polyline fill="none" stroke="#8b8878" points="259.02,-104 259.02,-72 "/>
<polyline fill="none" stroke="#8b8878" points="259.02,-104 263.02,-108 "/>
<text text-anchor="middle" x="236.02" y="-86.3" font-family="Helvetica,sans-Serif" font-size="14.00">path</text>
</g>
<!-- src/lib.ts&#45;&gt;path -->
<g id="edge10" class="edge">
<title>src/lib.ts&#45;&gt;path</title>
<path fill="none" stroke="#8b8878" stroke-width="1.5" stroke-dasharray="5,2" d="M200.15,-146.7C205.89,-137.79 213,-126.75 219.37,-116.85"/>
<polygon fill="#8b8878" stroke="#8b8878" stroke-width="1.5" points="222.49,-118.48 224.96,-108.18 216.6,-114.69 222.49,-118.48"/>
</g>
<!-- src/subfolder/deeper&#45;file.ts&#45;&gt;src/shallower&#45;file.ts -->
<g id="edge5" class="edge">
<title>src/subfolder/deeper&#45;file.ts&#45;&gt;src/shallower&#45;file.ts</title>
<path fill="none" stroke="#528b8b" stroke-width="2" d="M124.72,-71.7C115.58,-63.05 104.38,-52.45 94.42,-43.03"/>
<polygon fill="#528b8b" stroke="#528b8b" stroke-width="2" points="96.77,-40.43 87.1,-36.1 91.96,-45.52 96.77,-40.43"/>
</g>
</g>
</svg>
