<?xml version="1.0" encoding="UTF-8" standalone="no"?>
<!DOCTYPE svg PUBLIC "-//W3C//DTD SVG 1.1//EN"
 "http://www.w3.org/Graphics/SVG/1.1/DTD/svg11.dtd">
<!-- Generated by graphviz version 2.44.1 (20200629.0846)
 -->
<!-- Title: G Pages: 1 -->
<svg width="222pt" height="243pt"
 viewBox="0.00 0.00 222.00 243.00" xmlns="http://www.w3.org/2000/svg" xmlns:xlink="http://www.w3.org/1999/xlink">
<g id="graph0" class="graph" transform="scale(1 1) rotate(0) translate(4 239)">
<title>G</title>
<polygon fill="white" stroke="transparent" points="-4,4 -4,-239 218,-239 218,4 -4,4"/>
<g id="clust1" class="cluster">
<title>cluster6405122669</title>
<path fill="none" stroke="#8b7d6b" stroke-width="2" d="M20,-8C20,-8 194,-8 194,-8 200,-8 206,-14 206,-20 206,-20 206,-215 206,-215 206,-221 200,-227 194,-227 194,-227 20,-227 20,-227 14,-227 8,-221 8,-215 8,-215 8,-20 8,-20 8,-14 14,-8 20,-8"/>
<text text-anchor="start" x="96.5" y="-212.8" font-family="Helvetica,sans-Serif" font-weight="bold" font-size="14.00">src</text>
</g>
<!-- src/cli.ts -->
<g id="node1" class="node">
<title>src/cli.ts</title>
<path fill="#79cdcd" stroke="#79cdcd" d="M136,-196C136,-196 106,-196 106,-196 100,-196 94,-190 94,-184 94,-184 94,-172 94,-172 94,-166 100,-160 106,-160 106,-160 136,-160 136,-160 142,-160 148,-166 148,-172 148,-172 148,-184 148,-184 148,-190 142,-196 136,-196"/>
<text text-anchor="middle" x="121" y="-174.3" font-family="Helvetica,sans-Serif" font-size="14.00">cli.ts</text>
</g>
<!-- src/lib.ts -->
<g id="node2" class="node">
<title>src/lib.ts</title>
<path fill="#79cdcd" stroke="#79cdcd" d="M136,-124C136,-124 106,-124 106,-124 100,-124 94,-118 94,-112 94,-112 94,-100 94,-100 94,-94 100,-88 106,-88 106,-88 136,-88 136,-88 142,-88 148,-94 148,-100 148,-100 148,-112 148,-112 148,-118 142,-124 136,-124"/>
<text text-anchor="middle" x="121" y="-102.3" font-family="Helvetica,sans-Serif" font-size="14.00">lib.ts</text>
</g>
<!-- src/cli.ts&#45;&gt;src/lib.ts -->
<g id="edge1" class="edge">
<title>src/cli.ts&#45;&gt;src/lib.ts</title>
<path fill="none" stroke="#528b8b" stroke-width="2" d="M121,-159.7C121,-151.98 121,-142.71 121,-134.11"/>
<polygon fill="#528b8b" stroke="#528b8b" stroke-width="2" points="124.5,-134.1 121,-124.1 117.5,-134.1 124.5,-134.1"/>
</g>
<!-- src/shallower&#45;file.ts -->
<g id="node3" class="node">
<title>src/shallower&#45;file.ts</title>
<path fill="#79cdcd" stroke="#79cdcd" d="M114,-52C114,-52 28,-52 28,-52 22,-52 16,-46 16,-40 16,-40 16,-28 16,-28 16,-22 22,-16 28,-16 28,-16 114,-16 114,-16 120,-16 126,-22 126,-28 126,-28 126,-40 126,-40 126,-46 120,-52 114,-52"/>
<text text-anchor="middle" x="71" y="-30.3" font-family="Helvetica,sans-Serif" font-size="14.00">shallower&#45;file.ts</text>
</g>
<!-- src/lib.ts&#45;&gt;src/shallower&#45;file.ts -->
<g id="edge3" class="edge">
<title>src/lib.ts&#45;&gt;src/shallower&#45;file.ts</title>
<path fill="none" stroke="#528b8b" stroke-width="2" d="M108.64,-87.7C102.77,-79.47 95.63,-69.48 89.16,-60.42"/>
<polygon fill="#528b8b" stroke="#528b8b" stroke-width="2" points="91.88,-58.21 83.22,-52.1 86.18,-62.28 91.88,-58.21"/>
</g>
<!-- src/util.ts -->
<g id="node4" class="node">
<title>src/util.ts</title>
<path fill="#79cdcd" stroke="#79cdcd" d="M186,-52C186,-52 156,-52 156,-52 150,-52 144,-46 144,-40 144,-40 144,-28 144,-28 144,-22 150,-16 156,-16 156,-16 186,-16 186,-16 192,-16 198,-22 198,-28 198,-28 198,-40 198,-40 198,-46 192,-52 186,-52"/>
<text text-anchor="middle" x="171" y="-30.3" font-family="Helvetica,sans-Serif" font-size="14.00">util.ts</text>
</g>
<!-- src/lib.ts&#45;&gt;src/util.ts -->
<g id="edge2" class="edge">
<title>src/lib.ts&#45;&gt;src/util.ts</title>
<path fill="none" stroke="#528b8b" stroke-width="2" d="M133.36,-87.7C139.23,-79.47 146.37,-69.48 152.84,-60.42"/>
<polygon fill="#528b8b" stroke="#528b8b" stroke-width="2" points="155.82,-62.28 158.78,-52.1 150.12,-58.21 155.82,-62.28"/>
</g>
</g>
</svg>
