<?xml version="1.0" encoding="UTF-8" standalone="no"?>
<!DOCTYPE svg PUBLIC "-//W3C//DTD SVG 1.1//EN"
 "http://www.w3.org/Graphics/SVG/1.1/DTD/svg11.dtd">
<!-- Generated by graphviz version 2.44.1 (20200629.0846)
 -->
<!-- Title: G Pages: 1 -->
<svg width="592pt" height="318pt"
 viewBox="0.00 0.00 592.00 318.00" xmlns="http://www.w3.org/2000/svg" xmlns:xlink="http://www.w3.org/1999/xlink">
<g id="graph0" class="graph" transform="scale(1 1) rotate(0) translate(4 314)">
<title>G</title>
<polygon fill="white" stroke="transparent" points="-4,4 -4,-314 588,-314 588,4 -4,4"/>
<g id="clust1" class="cluster">
<title>cluster3816527025</title>
<path fill="none" stroke="#8b7d6b" stroke-width="2" d="M20,-8C20,-8 208,-8 208,-8 214,-8 220,-14 220,-20 220,-20 220,-290 220,-290 220,-296 214,-302 208,-302 208,-302 20,-302 20,-302 14,-302 8,-296 8,-290 8,-290 8,-20 8,-20 8,-14 14,-8 20,-8"/>
<text text-anchor="start" x="103.5" y="-287.8" font-family="Helvetica,sans-Serif" font-weight="bold" font-size="14.00">src</text>
</g>
<g id="clust2" class="cluster">
<title>cluster1141626504</title>
<path fill="bisque" stroke="#8b7d6b" stroke-width="2" d="M112,-80C112,-80 200,-80 200,-80 206,-80 212,-86 212,-92 212,-92 212,-143 212,-143 212,-149 206,-155 200,-155 200,-155 112,-155 112,-155 106,-155 100,-149 100,-143 100,-143 100,-92 100,-92 100,-86 106,-80 112,-80"/>
<text text-anchor="start" x="125" y="-140.8" font-family="Helvetica,sans-Serif" font-weight="bold" font-size="14.00">subfolder</text>
</g>
<g id="clust3" class="cluster">
<title>clusterPackages</title>
<path fill="none" stroke="#cdc8b1" stroke-width="3" d="M240,-80C240,-80 564,-80 564,-80 570,-80 576,-86 576,-92 576,-92 576,-143 576,-143 576,-149 570,-155 564,-155 564,-155 240,-155 240,-155 234,-155 228,-149 228,-143 228,-143 228,-92 228,-92 228,-86 234,-80 240,-80"/>
<text text-anchor="start" x="353.5" y="-140.8" font-family="Helvetica,sans-Serif" font-weight="bold" font-size="14.00">node_modules</text>
</g>
<!-- src/cli.ts -->
<g id="node1" class="node">
<title>src/cli.ts</title>
<path fill="#79cdcd" stroke="#79cdcd" d="M200,-271C200,-271 170,-271 170,-271 164,-271 158,-265 158,-259 158,-259 158,-247 158,-247 158,-241 164,-235 170,-235 170,-235 200,-235 200,-235 206,-235 212,-241 212,-247 212,-247 212,-259 212,-259 212,-265 206,-271 200,-271"/>
<text text-anchor="middle" x="185" y="-249.3" font-family="Helvetica,sans-Serif" font-size="14.00">cli.ts</text>
</g>
<!-- src/lib.ts -->
<g id="node2" class="node">
<title>src/lib.ts</title>
<path fill="#79cdcd" stroke="#79cdcd" d="M185,-199C185,-199 155,-199 155,-199 149,-199 143,-193 143,-187 143,-187 143,-175 143,-175 143,-169 149,-163 155,-163 155,-163 185,-163 185,-163 191,-163 197,-169 197,-175 197,-175 197,-187 197,-187 197,-193 191,-199 185,-199"/>
<text text-anchor="middle" x="170" y="-177.3" font-family="Helvetica,sans-Serif" font-size="14.00">lib.ts</text>
</g>
<!-- src/cli.ts&#45;&gt;src/lib.ts -->
<g id="edge1" class="edge">
<title>src/cli.ts&#45;&gt;src/lib.ts</title>
<path fill="none" stroke="#528b8b" stroke-width="2" d="M181.29,-234.7C179.64,-226.98 177.65,-217.71 175.81,-209.11"/>
<polygon fill="#528b8b" stroke="#528b8b" stroke-width="2" points="179.18,-208.15 173.67,-199.1 172.34,-209.62 179.18,-208.15"/>
</g>
<!-- fs -->
<g id="node6" class="node">
<title>fs</title>
<polygon fill="#cdc8b1" stroke="#8b8878" points="362,-124 312,-124 308,-120 308,-88 358,-88 362,-92 362,-124"/>
<polyline fill="none" stroke="#8b8878" points="358,-120 308,-120 "/>
<polyline fill="none" stroke="#8b8878" points="358,-120 358,-88 "/>
<polyline fill="none" stroke="#8b8878" points="358,-120 362,-124 "/>
<text text-anchor="middle" x="335" y="-102.3" font-family="Helvetica,sans-Serif" font-size="14.00">fs</text>
</g>
<!-- src/cli.ts&#45;&gt;fs -->
<g id="edge6" class="edge">
<title>src/cli.ts&#45;&gt;fs</title>
<path fill="none" stroke="#8b8878" stroke-width="1.5" stroke-dasharray="5,2" d="M208.16,-234.77C232.17,-216.37 270.16,-185.67 299,-155 305.46,-148.13 311.86,-140.11 317.42,-132.62"/>
<polygon fill="#8b8878" stroke="#8b8878" stroke-width="1.5" points="320.51,-134.32 323.53,-124.17 314.84,-130.22 320.51,-134.32"/>
</g>
<!-- child_process -->
<g id="node7" class="node">
<title>child_process</title>
<polygon fill="#cdc8b1" stroke="#8b8878" points="479.5,-124 384.5,-124 380.5,-120 380.5,-88 475.5,-88 479.5,-92 479.5,-124"/>
<polyline fill="none" stroke="#8b8878" points="475.5,-120 380.5,-120 "/>
<polyline fill="none" stroke="#8b8878" points="475.5,-120 475.5,-88 "/>
<polyline fill="none" stroke="#8b8878" points="475.5,-120 479.5,-124 "/>
<text text-anchor="middle" x="430" y="-102.3" font-family="Helvetica,sans-Serif" font-size="14.00">child_process</text>
</g>
<!-- src/cli.ts&#45;&gt;child_process -->
<g id="edge7" class="edge">
<title>src/cli.ts&#45;&gt;child_process</title>
<path fill="none" stroke="#8b8878" stroke-width="1.5" stroke-dasharray="5,2" d="M212.13,-239.97C249.23,-223.05 317.3,-190.33 371,-155 382.03,-147.74 393.45,-138.83 403.26,-130.67"/>
<polygon fill="#8b8878" stroke="#8b8878" stroke-width="1.5" points="405.72,-133.17 411.09,-124.03 401.2,-127.83 405.72,-133.17"/>
</g>
<!-- argparse -->
<g id="node8" class="node">
<title>argparse</title>
<polygon fill="#cdc8b1" stroke="#8b8878" points="568,-124 502,-124 498,-120 498,-88 564,-88 568,-92 568,-124"/>
<polyline fill="none" stroke="#8b8878" points="564,-120 498,-120 "/>
<polyline fill="none" stroke="#8b8878" points="564,-120 564,-88 "/>
<polyline fill="none" stroke="#8b8878" points="564,-120 568,-124 "/>
<text text-anchor="middle" x="533" y="-102.3" font-family="Helvetica,sans-Serif" font-size="14.00">argparse</text>
</g>
<!-- src/cli.ts&#45;&gt;argparse -->
<g id="edge8" class="edge">
<title>src/cli.ts&#45;&gt;argparse</title>
<path fill="none" stroke="#8b8878" stroke-width="1.5" stroke-dasharray="5,2" d="M212.19,-248.15C267.92,-239.28 397.52,-213.49 489,-155 498.53,-148.91 507.33,-140.25 514.51,-131.96"/>
<polygon fill="#8b8878" stroke="#8b8878" stroke-width="1.5" points="517.23,-134.16 520.88,-124.22 511.82,-129.72 517.23,-134.16"/>
</g>
<!-- src/shallower&#45;file.ts -->
<g id="node3" class="node">
<title>src/shallower&#45;file.ts</title>
<path fill="#79cdcd" stroke="#79cdcd" d="M156,-52C156,-52 70,-52 70,-52 64,-52 58,-46 58,-40 58,-40 58,-28 58,-28 58,-22 64,-16 70,-16 70,-16 156,-16 156,-16 162,-16 168,-22 168,-28 168,-28 168,-40 168,-40 168,-46 162,-52 156,-52"/>
<text text-anchor="middle" x="113" y="-30.3" font-family="Helvetica,sans-Serif" font-size="14.00">shallower&#45;file.ts</text>
</g>
<!-- src/lib.ts&#45;&gt;src/shallower&#45;file.ts -->
<g id="edge4" class="edge">
<title>src/lib.ts&#45;&gt;src/shallower&#45;file.ts</title>
<path fill="none" stroke="#528b8b" stroke-width="2" d="M142.91,-179.26C105.64,-177.61 41.51,-172.27 27,-155 5.56,-129.48 9.74,-108.52 27,-80 32.68,-70.62 41.03,-63.1 50.32,-57.1"/>
<polygon fill="#528b8b" stroke="#528b8b" stroke-width="2" points="52.19,-60.06 59.08,-52.01 48.67,-54.01 52.19,-60.06"/>
</g>
<!-- src/util.ts -->
<g id="node4" class="node">
<title>src/util.ts</title>
<path fill="#79cdcd" stroke="#79cdcd" d="M78,-124C78,-124 48,-124 48,-124 42,-124 36,-118 36,-112 36,-112 36,-100 36,-100 36,-94 42,-88 48,-88 48,-88 78,-88 78,-88 84,-88 90,-94 90,-100 90,-100 90,-112 90,-112 90,-118 84,-124 78,-124"/>
<text text-anchor="middle" x="63" y="-102.3" font-family="Helvetica,sans-Serif" font-size="14.00">util.ts</text>
</g>
<!-- src/lib.ts&#45;&gt;src/util.ts -->
<g id="edge2" class="edge">
<title>src/lib.ts&#45;&gt;src/util.ts</title>
<path fill="none" stroke="#528b8b" stroke-width="2" d="M142.68,-175.18C127.77,-171.52 109.63,-165.3 96,-155 88.26,-149.15 81.69,-140.95 76.5,-132.98"/>
<polygon fill="#528b8b" stroke="#528b8b" stroke-width="2" points="79.38,-130.98 71.23,-124.21 73.38,-134.59 79.38,-130.98"/>
</g>
<!-- src/subfolder/deeper&#45;file.ts -->
<g id="node5" class="node">
<title>src/subfolder/deeper&#45;file.ts</title>
<path fill="#79cdcd" stroke="#79cdcd" d="M191.5,-124C191.5,-124 120.5,-124 120.5,-124 114.5,-124 108.5,-118 108.5,-112 108.5,-112 108.5,-100 108.5,-100 108.5,-94 114.5,-88 120.5,-88 120.5,-88 191.5,-88 191.5,-88 197.5,-88 203.5,-94 203.5,-100 203.5,-100 203.5,-112 203.5,-112 203.5,-118 197.5,-124 191.5,-124"/>
<text text-anchor="middle" x="156" y="-102.3" font-family="Helvetica,sans-Serif" font-size="14.00">deeper&#45;file.ts</text>
</g>
<!-- src/lib.ts&#45;&gt;src/subfolder/deeper&#45;file.ts -->
<g id="edge3" class="edge">
<title>src/lib.ts&#45;&gt;src/subfolder/deeper&#45;file.ts</title>
<path fill="none" stroke="#528b8b" stroke-width="2" d="M166.68,-162.7C165.04,-154.15 163.03,-143.65 161.19,-134.07"/>
<polygon fill="#528b8b" stroke="#528b8b" stroke-width="2" points="164.61,-133.34 159.29,-124.18 157.74,-134.66 164.61,-133.34"/>
</g>
<!-- src/lib.ts&#45;&gt;fs -->
<g id="edge9" class="edge">
<title>src/lib.ts&#45;&gt;fs</title>
<path fill="none" stroke="#8b8878" stroke-width="1.5" stroke-dasharray="5,2" d="M197.13,-175.81C232.38,-170.2 290.47,-160.34 299,-155 307.78,-149.5 315.17,-141.03 320.93,-132.73"/>
<polygon fill="#8b8878" stroke="#8b8878" stroke-width="1.5" points="323.9,-134.58 326.33,-124.27 318,-130.82 323.9,-134.58"/>
</g>
<!-- path -->
<g id="node9" class="node">
<title>path</title>
<polygon fill="#cdc8b1" stroke="#8b8878" points="290,-124 240,-124 236,-120 236,-88 286,-88 290,-92 290,-124"/>
<polyline fill="none" stroke="#8b8878" points="286,-120 236,-120 "/>
<polyline fill="none" stroke="#8b8878" points="286,-120 286,-88 "/>
<polyline fill="none" stroke="#8b8878" points="286,-120 290,-124 "/>
<text text-anchor="middle" x="263" y="-102.3" font-family="Helvetica,sans-Serif" font-size="14.00">path</text>
</g>
<!-- src/lib.ts&#45;&gt;path -->
<g id="edge10" class="edge">
<title>src/lib.ts&#45;&gt;path</title>
<path fill="none" stroke="#8b8878" stroke-width="1.5" stroke-dasharray="5,2" d="M197.1,-167.01C203.53,-163.47 210.2,-159.38 216,-155 224.93,-148.25 233.78,-139.81 241.34,-131.9"/>
<polygon fill="#8b8878" stroke="#8b8878" stroke-width="1.5" points="244.2,-133.97 248.43,-124.25 239.07,-129.21 244.2,-133.97"/>
</g>
<!-- src/subfolder/deeper&#45;file.ts&#45;&gt;src/shallower&#45;file.ts -->
<g id="edge5" class="edge">
<title>src/subfolder/deeper&#45;file.ts&#45;&gt;src/shallower&#45;file.ts</title>
<path fill="none" stroke="#528b8b" stroke-width="2" d="M145.37,-87.7C140.37,-79.56 134.31,-69.69 128.79,-60.7"/>
<polygon fill="#528b8b" stroke="#528b8b" stroke-width="2" points="131.72,-58.79 123.51,-52.1 125.76,-62.46 131.72,-58.79"/>
</g>
</g>
</svg>
