<?xml version="1.0" encoding="UTF-8" standalone="no"?>
<!DOCTYPE svg PUBLIC "-//W3C//DTD SVG 1.1//EN"
 "http://www.w3.org/Graphics/SVG/1.1/DTD/svg11.dtd">
<!-- Generated by graphviz version 2.44.1 (20200629.0846)
 -->
<!-- Title: G Pages: 1 -->
<svg width="461pt" height="204pt"
 viewBox="0.00 0.00 461.00 204.00" xmlns="http://www.w3.org/2000/svg" xmlns:xlink="http://www.w3.org/1999/xlink">
<g id="graph0" class="graph" transform="scale(1 1) rotate(0) translate(4 200)">
<title>G</title>
<polygon fill="white" stroke="transparent" points="-4,4 -4,-200 457,-200 457,4 -4,4"/>
<g id="clust1" class="cluster">
<title>cluster4443182642</title>
<path fill="none" stroke="#8b7d6b" stroke-width="2" d="M20,-8C20,-8 433,-8 433,-8 439,-8 445,-14 445,-20 445,-20 445,-176 445,-176 445,-182 439,-188 433,-188 433,-188 20,-188 20,-188 14,-188 8,-182 8,-176 8,-176 8,-20 8,-20 8,-14 14,-8 20,-8"/>
<text text-anchor="start" x="216" y="-173.8" font-family="Helvetica,sans-Serif" font-weight="bold" font-size="14.00">src</text>
</g>
<g id="clust2" class="cluster">
<title>cluster986983717</title>
<path fill="bisque" stroke="#8b7d6b" stroke-width="2" d="M200,-82C200,-82 287,-82 287,-82 293,-82 299,-88 299,-94 299,-94 299,-145 299,-145 299,-151 293,-157 287,-157 287,-157 200,-157 200,-157 194,-157 188,-151 188,-145 188,-145 188,-94 188,-94 188,-88 194,-82 200,-82"/>
<text text-anchor="start" x="212.5" y="-142.8" font-family="Helvetica,sans-Serif" font-weight="bold" font-size="14.00">subfolder</text>
</g>
<!-- src/cli.ts -->
<g id="node1" class="node">
<title>src/cli.ts</title>
<path fill="#79cdcd" stroke="#79cdcd" d="M58,-72C58,-72 28,-72 28,-72 22,-72 16,-66 16,-60 16,-60 16,-48 16,-48 16,-42 22,-36 28,-36 28,-36 58,-36 58,-36 64,-36 70,-42 70,-48 70,-48 70,-60 70,-60 70,-66 64,-72 58,-72"/>
<text text-anchor="middle" x="43" y="-50.3" font-family="Helvetica,sans-Serif" font-size="14.00">cli.ts</text>
</g>
<!-- src/lib.ts -->
<g id="node2" class="node">
<title>src/lib.ts</title>
<path fill="#79cdcd" stroke="#79cdcd" d="M148,-72C148,-72 118,-72 118,-72 112,-72 106,-66 106,-60 106,-60 106,-48 106,-48 106,-42 112,-36 118,-36 118,-36 148,-36 148,-36 154,-36 160,-42 160,-48 160,-48 160,-60 160,-60 160,-66 154,-72 148,-72"/>
<text text-anchor="middle" x="133" y="-50.3" font-family="Helvetica,sans-Serif" font-size="14.00">lib.ts</text>
</g>
<!-- src/cli.ts&#45;&gt;src/lib.ts -->
<g id="edge1" class="edge">
<title>src/cli.ts&#45;&gt;src/lib.ts</title>
<path fill="none" stroke="#528b8b" stroke-width="2" d="M70.4,-54C78.39,-54 87.31,-54 95.82,-54"/>
<polygon fill="#528b8b" stroke="#528b8b" stroke-width="2" points="95.92,-57.5 105.92,-54 95.92,-50.5 95.92,-57.5"/>
</g>
<!-- src/shallower&#45;file.ts -->
<g id="node3" class="node">
<title>src/shallower&#45;file.ts</title>
<path fill="#79cdcd" stroke="#79cdcd" d="M425,-89C425,-89 339,-89 339,-89 333,-89 327,-83 327,-77 327,-77 327,-65 327,-65 327,-59 333,-53 339,-53 339,-53 425,-53 425,-53 431,-53 437,-59 437,-65 437,-65 437,-77 437,-77 437,-83 431,-89 425,-89"/>
<text text-anchor="middle" x="382" y="-67.3" font-family="Helvetica,sans-Serif" font-size="14.00">shallower&#45;file.ts</text>
</g>
<!-- src/lib.ts&#45;&gt;src/shallower&#45;file.ts -->
<g id="edge4" class="edge">
<title>src/lib.ts&#45;&gt;src/shallower&#45;file.ts</title>
<path fill="none" stroke="#528b8b" stroke-width="2" d="M160.26,-37.82C168.79,-33.42 178.51,-29.24 188,-27 236.01,-15.67 251.15,-14.97 299,-27 315.45,-31.14 332.2,-39.28 346.24,-47.45"/>
<polygon fill="#528b8b" stroke="#528b8b" stroke-width="2" points="344.68,-50.59 355.04,-52.78 348.3,-44.61 344.68,-50.59"/>
</g>
<!-- src/util.ts -->
<g id="node4" class="node">
<title>src/util.ts</title>
<path fill="#79cdcd" stroke="#79cdcd" d="M258.5,-72C258.5,-72 228.5,-72 228.5,-72 222.5,-72 216.5,-66 216.5,-60 216.5,-60 216.5,-48 216.5,-48 216.5,-42 222.5,-36 228.5,-36 228.5,-36 258.5,-36 258.5,-36 264.5,-36 270.5,-42 270.5,-48 270.5,-48 270.5,-60 270.5,-60 270.5,-66 264.5,-72 258.5,-72"/>
<text text-anchor="middle" x="243.5" y="-50.3" font-family="Helvetica,sans-Serif" font-size="14.00">util.ts</text>
</g>
<!-- src/lib.ts&#45;&gt;src/util.ts -->
<g id="edge2" class="edge">
<title>src/lib.ts&#45;&gt;src/util.ts</title>
<path fill="none" stroke="#528b8b" stroke-width="2" d="M160.26,-54C174.13,-54 191.34,-54 206.43,-54"/>
<polygon fill="#528b8b" stroke="#528b8b" stroke-width="2" points="206.48,-57.5 216.48,-54 206.48,-50.5 206.48,-57.5"/>
</g>
<!-- src/subfolder/deeper&#45;file.ts -->
<g id="node5" class="node">
<title>src/subfolder/deeper&#45;file.ts</title>
<path fill="#79cdcd" stroke="#79cdcd" d="M279,-126C279,-126 208,-126 208,-126 202,-126 196,-120 196,-114 196,-114 196,-102 196,-102 196,-96 202,-90 208,-90 208,-90 279,-90 279,-90 285,-90 291,-96 291,-102 291,-102 291,-114 291,-114 291,-120 285,-126 279,-126"/>
<text text-anchor="middle" x="243.5" y="-104.3" font-family="Helvetica,sans-Serif" font-size="14.00">deeper&#45;file.ts</text>
</g>
<!-- src/lib.ts&#45;&gt;src/subfolder/deeper&#45;file.ts -->
<g id="edge3" class="edge">
<title>src/lib.ts&#45;&gt;src/subfolder/deeper&#45;file.ts</title>
<path fill="none" stroke="#528b8b" stroke-width="2" d="M160.2,-70.6C167.26,-74.84 175.07,-79.33 187.13,-85.4"/>
<polygon fill="#528b8b" stroke="#528b8b" stroke-width="2" points="185.68,-88.59 196.2,-89.88 188.78,-82.31 185.68,-88.59"/>
</g>
<!-- src/subfolder/deeper&#45;file.ts&#45;&gt;src/shallower&#45;file.ts -->
<g id="edge5" class="edge">
<title>src/subfolder/deeper&#45;file.ts&#45;&gt;src/shallower&#45;file.ts</title>
<path fill="none" stroke="#528b8b" stroke-width="2" d="M291.09,-95.37C299.4,-93.12 308.18,-90.74 316.87,-88.38"/>
<polygon fill="#528b8b" stroke="#528b8b" stroke-width="2" points="317.88,-91.73 326.62,-85.74 316.05,-84.98 317.88,-91.73"/>
</g>
</g>
</svg>
