<?xml version="1.0" encoding="UTF-8" standalone="no"?>
<!DOCTYPE svg PUBLIC "-//W3C//DTD SVG 1.1//EN"
 "http://www.w3.org/Graphics/SVG/1.1/DTD/svg11.dtd">
<!-- Generated by graphviz version 2.44.1 (20200629.0846)
 -->
<!-- Title: G Pages: 1 -->
<svg width="430pt" height="318pt"
 viewBox="0.00 0.00 430.00 318.00" xmlns="http://www.w3.org/2000/svg" xmlns:xlink="http://www.w3.org/1999/xlink">
<g id="graph0" class="graph" transform="scale(1 1) rotate(0) translate(4 314)">
<title>G</title>
<polygon fill="white" stroke="transparent" points="-4,4 -4,-314 426,-314 426,4 -4,4"/>
<g id="clust1" class="cluster">
<title>cluster2427947403</title>
<path fill="none" stroke="#8b7d6b" stroke-width="2" d="M20,-8C20,-8 208,-8 208,-8 214,-8 220,-14 220,-20 220,-20 220,-290 220,-290 220,-296 214,-302 208,-302 208,-302 20,-302 20,-302 14,-302 8,-296 8,-290 8,-290 8,-20 8,-20 8,-14 14,-8 20,-8"/>
<text text-anchor="start" x="103.5" y="-287.8" font-family="Helvetica,sans-Serif" font-weight="bold" font-size="14.00">src</text>
</g>
<g id="clust2" class="cluster">
<title>cluster9897648242</title>
<path fill="bisque" stroke="#8b7d6b" stroke-width="2" d="M112,-80C112,-80 200,-80 200,-80 206,-80 212,-86 212,-92 212,-92 212,-143 212,-143 212,-149 206,-155 200,-155 200,-155 112,-155 112,-155 106,-155 100,-149 100,-143 100,-143 100,-92 100,-92 100,-86 106,-80 112,-80"/>
<text text-anchor="start" x="125" y="-140.8" font-family="Helvetica,sans-Serif" font-weight="bold" font-size="14.00">subfolder</text>
</g>
<!-- src/cli.ts -->
<g id="node1" class="node">
<title>src/cli.ts</title>
<path fill="#79cdcd" stroke="#79cdcd" d="M200,-271C200,-271 170,-271 170,-271 164,-271 158,-265 158,-259 158,-259 158,-247 158,-247 158,-241 164,-235 170,-235 170,-235 200,-235 200,-235 206,-235 212,-241 212,-247 212,-247 212,-259 212,-259 212,-265 206,-271 200,-271"/>
<text text-anchor="middle" x="185" y="-249.3" font-family="Helvetica,sans-Serif" font-size="14.00">cli.ts</text>
</g>
<!-- src/lib.ts -->
<g id="node2" class="node">
<title>src/lib.ts</title>
<path fill="#79cdcd" stroke="#79cdcd" d="M166,-199C166,-199 136,-199 136,-199 130,-199 124,-193 124,-187 124,-187 124,-175 124,-175 124,-169 130,-163 136,-163 136,-163 166,-163 166,-163 172,-163 178,-169 178,-175 178,-175 178,-187 178,-187 178,-193 172,-199 166,-199"/>
<text text-anchor="middle" x="151" y="-177.3" font-family="Helvetica,sans-Serif" font-size="14.00">lib.ts</text>
</g>
<!-- src/cli.ts&#45;&gt;src/lib.ts -->
<g id="edge1" class="edge">
<title>src/cli.ts&#45;&gt;src/lib.ts</title>
<path fill="none" stroke="#528b8b" stroke-width="2" d="M176.6,-234.7C172.73,-226.73 168.05,-217.1 163.76,-208.26"/>
<polygon fill="#528b8b" stroke="#528b8b" stroke-width="2" points="166.83,-206.57 159.31,-199.1 160.53,-209.63 166.83,-206.57"/>
</g>
<!-- fs -->
<g id="node6" class="node">
<title>fs</title>
<polygon fill="#cdc8b1" stroke="#8b8878" points="354,-124 304,-124 300,-120 300,-88 350,-88 354,-92 354,-124"/>
<polyline fill="none" stroke="#8b8878" points="350,-120 300,-120 "/>
<polyline fill="none" stroke="#8b8878" points="350,-120 350,-88 "/>
<polyline fill="none" stroke="#8b8878" points="350,-120 354,-124 "/>
<text text-anchor="middle" x="327" y="-102.3" font-family="Helvetica,sans-Serif" font-size="14.00">fs</text>
</g>
<!-- src/cli.ts&#45;&gt;fs -->
<g id="edge6" class="edge">
<title>src/cli.ts&#45;&gt;fs</title>
<path fill="none" stroke="#8b8878" stroke-width="1.5" stroke-dasharray="5,2" d="M187.79,-234.75C192.11,-214.1 202.51,-180.16 226,-163 249.51,-145.83 265.81,-169.59 291,-155 300.1,-149.73 307.62,-141.16 313.39,-132.7"/>
<polygon fill="#8b8878" stroke="#8b8878" stroke-width="1.5" points="316.45,-134.41 318.77,-124.07 310.51,-130.71 316.45,-134.41"/>
</g>
<!-- child_process -->
<g id="node7" class="node">
<title>child_process</title>
<polygon fill="#cdc8b1" stroke="#8b8878" points="333.5,-199 238.5,-199 234.5,-195 234.5,-163 329.5,-163 333.5,-167 333.5,-199"/>
<polyline fill="none" stroke="#8b8878" points="329.5,-195 234.5,-195 "/>
<polyline fill="none" stroke="#8b8878" points="329.5,-195 329.5,-163 "/>
<polyline fill="none" stroke="#8b8878" points="329.5,-195 333.5,-199 "/>
<text text-anchor="middle" x="284" y="-177.3" font-family="Helvetica,sans-Serif" font-size="14.00">child_process</text>
</g>
<!-- src/cli.ts&#45;&gt;child_process -->
<g id="edge7" class="edge">
<title>src/cli.ts&#45;&gt;child_process</title>
<path fill="none" stroke="#8b8878" stroke-width="1.5" stroke-dasharray="5,2" d="M209.22,-234.88C221.92,-225.89 237.66,-214.76 251.42,-205.03"/>
<polygon fill="#8b8878" stroke="#8b8878" stroke-width="1.5" points="253.54,-207.82 259.69,-199.19 249.5,-202.11 253.54,-207.82"/>
</g>
<!-- argparse -->
<g id="node8" class="node">
<title>argparse</title>
<polygon fill="#cdc8b1" stroke="#8b8878" points="422,-199 356,-199 352,-195 352,-163 418,-163 422,-167 422,-199"/>
<polyline fill="none" stroke="#8b8878" points="418,-195 352,-195 "/>
<polyline fill="none" stroke="#8b8878" points="418,-195 418,-163 "/>
<polyline fill="none" stroke="#8b8878" points="418,-195 422,-199 "/>
<text text-anchor="middle" x="387" y="-177.3" font-family="Helvetica,sans-Serif" font-size="14.00">argparse</text>
</g>
<!-- src/cli.ts&#45;&gt;argparse -->
<g id="edge8" class="edge">
<title>src/cli.ts&#45;&gt;argparse</title>
<path fill="none" stroke="#8b8878" stroke-width="1.5" stroke-dasharray="5,2" d="M212.25,-243.27C241.99,-233.66 291.21,-217.48 342.41,-199.14"/>
<polygon fill="#8b8878" stroke="#8b8878" stroke-width="1.5" points="343.77,-202.37 351.99,-195.69 341.39,-195.79 343.77,-202.37"/>
</g>
<!-- src/shallower&#45;file.ts -->
<g id="node3" class="node">
<title>src/shallower&#45;file.ts</title>
<path fill="#79cdcd" stroke="#79cdcd" d="M156,-52C156,-52 70,-52 70,-52 64,-52 58,-46 58,-40 58,-40 58,-28 58,-28 58,-22 64,-16 70,-16 70,-16 156,-16 156,-16 162,-16 168,-22 168,-28 168,-28 168,-40 168,-40 168,-46 162,-52 156,-52"/>
<text text-anchor="middle" x="113" y="-30.3" font-family="Helvetica,sans-Serif" font-size="14.00">shallower&#45;file.ts</text>
</g>
<!-- src/lib.ts&#45;&gt;src/shallower&#45;file.ts -->
<g id="edge4" class="edge">
<title>src/lib.ts&#45;&gt;src/shallower&#45;file.ts</title>
<path fill="none" stroke="#528b8b" stroke-width="2" d="M123.86,-178.43C91.13,-175.91 39,-169.66 27,-155 5.89,-129.21 9.74,-108.52 27,-80 32.68,-70.62 41.03,-63.1 50.32,-57.1"/>
<polygon fill="#528b8b" stroke="#528b8b" stroke-width="2" points="52.19,-60.06 59.08,-52.01 48.67,-54.01 52.19,-60.06"/>
</g>
<!-- src/util.ts -->
<g id="node4" class="node">
<title>src/util.ts</title>
<path fill="#79cdcd" stroke="#79cdcd" d="M78,-124C78,-124 48,-124 48,-124 42,-124 36,-118 36,-112 36,-112 36,-100 36,-100 36,-94 42,-88 48,-88 48,-88 78,-88 78,-88 84,-88 90,-94 90,-100 90,-100 90,-112 90,-112 90,-118 84,-124 78,-124"/>
<text text-anchor="middle" x="63" y="-102.3" font-family="Helvetica,sans-Serif" font-size="14.00">util.ts</text>
</g>
<!-- src/lib.ts&#45;&gt;src/util.ts -->
<g id="edge2" class="edge">
<title>src/lib.ts&#45;&gt;src/util.ts</title>
<path fill="none" stroke="#528b8b" stroke-width="2" d="M123.86,-171.09C114.39,-167.13 104.12,-161.8 96,-155 88.68,-148.86 82.27,-140.72 77.09,-132.89"/>
<polygon fill="#528b8b" stroke="#528b8b" stroke-width="2" points="80.02,-130.97 71.79,-124.3 74.07,-134.65 80.02,-130.97"/>
</g>
<!-- src/subfolder/deeper&#45;file.ts -->
<g id="node5" class="node">
<title>src/subfolder/deeper&#45;file.ts</title>
<path fill="#79cdcd" stroke="#79cdcd" d="M191.5,-124C191.5,-124 120.5,-124 120.5,-124 114.5,-124 108.5,-118 108.5,-112 108.5,-112 108.5,-100 108.5,-100 108.5,-94 114.5,-88 120.5,-88 120.5,-88 191.5,-88 191.5,-88 197.5,-88 203.5,-94 203.5,-100 203.5,-100 203.5,-112 203.5,-112 203.5,-118 197.5,-124 191.5,-124"/>
<text text-anchor="middle" x="156" y="-102.3" font-family="Helvetica,sans-Serif" font-size="14.00">deeper&#45;file.ts</text>
</g>
<!-- src/lib.ts&#45;&gt;src/subfolder/deeper&#45;file.ts -->
<g id="edge3" class="edge">
<title>src/lib.ts&#45;&gt;src/subfolder/deeper&#45;file.ts</title>
<path fill="none" stroke="#528b8b" stroke-width="2" d="M152.18,-162.7C152.76,-154.25 153.47,-143.87 154.13,-134.37"/>
<polygon fill="#528b8b" stroke="#528b8b" stroke-width="2" points="157.63,-134.39 154.82,-124.18 150.65,-133.91 157.63,-134.39"/>
</g>
<!-- src/lib.ts&#45;&gt;fs -->
<g id="edge9" class="edge">
<title>src/lib.ts&#45;&gt;fs</title>
<path fill="none" stroke="#8b8878" stroke-width="1.5" stroke-dasharray="5,2" d="M178.4,-167.27C182.87,-165.59 187.51,-164.08 192,-163 213.46,-157.82 271.67,-165.66 291,-155 300.21,-149.92 307.75,-141.39 313.51,-132.91"/>
<polygon fill="#8b8878" stroke="#8b8878" stroke-width="1.5" points="316.59,-134.59 318.86,-124.24 310.63,-130.91 316.59,-134.59"/>
</g>
<!-- path -->
<g id="node9" class="node">
<title>path</title>
<polygon fill="#cdc8b1" stroke="#8b8878" points="282,-124 232,-124 228,-120 228,-88 278,-88 282,-92 282,-124"/>
<polyline fill="none" stroke="#8b8878" points="278,-120 228,-120 "/>
<polyline fill="none" stroke="#8b8878" points="278,-120 278,-88 "/>
<polyline fill="none" stroke="#8b8878" points="278,-120 282,-124 "/>
<text text-anchor="middle" x="255" y="-102.3" font-family="Helvetica,sans-Serif" font-size="14.00">path</text>
</g>
<!-- src/lib.ts&#45;&gt;path -->
<g id="edge10" class="edge">
<title>src/lib.ts&#45;&gt;path</title>
<path fill="none" stroke="#8b8878" stroke-width="1.5" stroke-dasharray="5,2" d="M178.24,-168.39C182.81,-166.53 187.52,-164.67 192,-163 202.53,-159.07 206.75,-161.4 216,-155 224.65,-149.02 232.39,-140.58 238.65,-132.45"/>
<polygon fill="#8b8878" stroke="#8b8878" stroke-width="1.5" points="241.6,-134.36 244.62,-124.2 235.92,-130.25 241.6,-134.36"/>
</g>
<!-- src/subfolder/deeper&#45;file.ts&#45;&gt;src/shallower&#45;file.ts -->
<g id="edge5" class="edge">
<title>src/subfolder/deeper&#45;file.ts&#45;&gt;src/shallower&#45;file.ts</title>
<path fill="none" stroke="#528b8b" stroke-width="2" d="M145.37,-87.7C140.37,-79.56 134.31,-69.69 128.79,-60.7"/>
<polygon fill="#528b8b" stroke="#528b8b" stroke-width="2" points="131.72,-58.79 123.51,-52.1 125.76,-62.46 131.72,-58.79"/>
</g>
</g>
</svg>
