<?xml version="1.0" encoding="UTF-8" standalone="no"?>
<!DOCTYPE svg PUBLIC "-//W3C//DTD SVG 1.1//EN"
 "http://www.w3.org/Graphics/SVG/1.1/DTD/svg11.dtd">
<!-- Generated by graphviz version 2.44.1 (20200629.0846)
 -->
<!-- Title: G Pages: 1 -->
<svg width="236pt" height="318pt"
 viewBox="0.00 0.00 236.00 318.00" xmlns="http://www.w3.org/2000/svg" xmlns:xlink="http://www.w3.org/1999/xlink">
<g id="graph0" class="graph" transform="scale(1 1) rotate(0) translate(4 314)">
<title>G</title>
<polygon fill="white" stroke="transparent" points="-4,4 -4,-314 232,-314 232,4 -4,4"/>
<g id="clust1" class="cluster">
<title>cluster8911107781</title>
<path fill="none" stroke="#8b7d6b" stroke-width="2" d="M20,-8C20,-8 208,-8 208,-8 214,-8 220,-14 220,-20 220,-20 220,-290 220,-290 220,-296 214,-302 208,-302 208,-302 20,-302 20,-302 14,-302 8,-296 8,-290 8,-290 8,-20 8,-20 8,-14 14,-8 20,-8"/>
<text text-anchor="start" x="103.5" y="-287.8" font-family="Helvetica,sans-Serif" font-weight="bold" font-size="14.00">src</text>
</g>
<g id="clust2" class="cluster">
<title>cluster6549005636</title>
<path fill="bisque" stroke="#8b7d6b" stroke-width="2" d="M112,-80C112,-80 200,-80 200,-80 206,-80 212,-86 212,-92 212,-92 212,-143 212,-143 212,-149 206,-155 200,-155 200,-155 112,-155 112,-155 106,-155 100,-149 100,-143 100,-143 100,-92 100,-92 100,-86 106,-80 112,-80"/>
<text text-anchor="start" x="125" y="-140.8" font-family="Helvetica,sans-Serif" font-weight="bold" font-size="14.00">subfolder</text>
</g>
<!-- src/cli.ts -->
<g id="node1" class="node">
<title>src/cli.ts</title>
<path fill="#79cdcd" stroke="#79cdcd" d="M78,-271C78,-271 48,-271 48,-271 42,-271 36,-265 36,-259 36,-259 36,-247 36,-247 36,-241 42,-235 48,-235 48,-235 78,-235 78,-235 84,-235 90,-241 90,-247 90,-247 90,-259 90,-259 90,-265 84,-271 78,-271"/>
<text text-anchor="middle" x="63" y="-249.3" font-family="Helvetica,sans-Serif" font-size="14.00">cli.ts</text>
</g>
<!-- src/lib.ts -->
<g id="node2" class="node">
<title>src/lib.ts</title>
<path fill="#79cdcd" stroke="#79cdcd" d="M78,-199C78,-199 48,-199 48,-199 42,-199 36,-193 36,-187 36,-187 36,-175 36,-175 36,-169 42,-163 48,-163 48,-163 78,-163 78,-163 84,-163 90,-169 90,-175 90,-175 90,-187 90,-187 90,-193 84,-199 78,-199"/>
<text text-anchor="middle" x="63" y="-177.3" font-family="Helvetica,sans-Serif" font-size="14.00">lib.ts</text>
</g>
<!-- src/cli.ts&#45;&gt;src/lib.ts -->
<g id="edge1" class="edge">
<title>src/cli.ts&#45;&gt;src/lib.ts</title>
<path fill="none" stroke="#528b8b" stroke-width="2" d="M63,-234.7C63,-226.98 63,-217.71 63,-209.11"/>
<polygon fill="#528b8b" stroke="#528b8b" stroke-width="2" points="66.5,-209.1 63,-199.1 59.5,-209.1 66.5,-209.1"/>
</g>
<!-- src/shallower&#45;file.ts -->
<g id="node3" class="node">
<title>src/shallower&#45;file.ts</title>
<path fill="#79cdcd" stroke="#79cdcd" d="M156,-52C156,-52 70,-52 70,-52 64,-52 58,-46 58,-40 58,-40 58,-28 58,-28 58,-22 64,-16 70,-16 70,-16 156,-16 156,-16 162,-16 168,-22 168,-28 168,-28 168,-40 168,-40 168,-46 162,-52 156,-52"/>
<text text-anchor="middle" x="113" y="-30.3" font-family="Helvetica,sans-Serif" font-size="14.00">shallower&#45;file.ts</text>
</g>
<!-- src/lib.ts&#45;&gt;src/shallower&#45;file.ts -->
<g id="edge4" class="edge">
<title>src/lib.ts&#45;&gt;src/shallower&#45;file.ts</title>
<path fill="none" stroke="#528b8b" stroke-width="2" d="M35.73,-165.59C32.22,-162.57 29.12,-159.05 27,-155 11.55,-125.46 9.74,-108.52 27,-80 32.68,-70.62 41.03,-63.1 50.32,-57.1"/>
<polygon fill="#528b8b" stroke="#528b8b" stroke-width="2" points="52.19,-60.06 59.08,-52.01 48.67,-54.01 52.19,-60.06"/>
</g>
<!-- src/util.ts -->
<g id="node4" class="node">
<title>src/util.ts</title>
<path fill="#79cdcd" stroke="#79cdcd" d="M78,-124C78,-124 48,-124 48,-124 42,-124 36,-118 36,-112 36,-112 36,-100 36,-100 36,-94 42,-88 48,-88 48,-88 78,-88 78,-88 84,-88 90,-94 90,-100 90,-100 90,-112 90,-112 90,-118 84,-124 78,-124"/>
<text text-anchor="middle" x="63" y="-102.3" font-family="Helvetica,sans-Serif" font-size="14.00">util.ts</text>
</g>
<!-- src/lib.ts&#45;&gt;src/util.ts -->
<g id="edge2" class="edge">
<title>src/lib.ts&#45;&gt;src/util.ts</title>
<path fill="none" stroke="#528b8b" stroke-width="2" d="M63,-162.7C63,-154.25 63,-143.87 63,-134.37"/>
<polygon fill="#528b8b" stroke="#528b8b" stroke-width="2" points="66.5,-134.18 63,-124.18 59.5,-134.18 66.5,-134.18"/>
</g>
<!-- src/subfolder/deeper&#45;file.ts -->
<g id="node5" class="node">
<title>src/subfolder/deeper&#45;file.ts</title>
<path fill="#79cdcd" stroke="#79cdcd" d="M191.5,-124C191.5,-124 120.5,-124 120.5,-124 114.5,-124 108.5,-118 108.5,-112 108.5,-112 108.5,-100 108.5,-100 108.5,-94 114.5,-88 120.5,-88 120.5,-88 191.5,-88 191.5,-88 197.5,-88 203.5,-94 203.5,-100 203.5,-100 203.5,-112 203.5,-112 203.5,-118 197.5,-124 191.5,-124"/>
<text text-anchor="middle" x="156" y="-102.3" font-family="Helvetica,sans-Serif" font-size="14.00">deeper&#45;file.ts</text>
</g>
<!-- src/lib.ts&#45;&gt;src/subfolder/deeper&#45;file.ts -->
<g id="edge3" class="edge">
<title>src/lib.ts&#45;&gt;src/subfolder/deeper&#45;file.ts</title>
<path fill="none" stroke="#528b8b" stroke-width="2" d="M90.23,-164.97C95.27,-161.87 100.39,-158.47 105,-155 114.37,-147.94 123.92,-139.38 132.18,-131.46"/>
<polygon fill="#528b8b" stroke="#528b8b" stroke-width="2" points="134.67,-133.92 139.37,-124.43 129.77,-128.92 134.67,-133.92"/>
</g>
<!-- src/subfolder/deeper&#45;file.ts&#45;&gt;src/shallower&#45;file.ts -->
<g id="edge5" class="edge">
<title>src/subfolder/deeper&#45;file.ts&#45;&gt;src/shallower&#45;file.ts</title>
<path fill="none" stroke="#528b8b" stroke-width="2" d="M145.37,-87.7C140.37,-79.56 134.31,-69.69 128.79,-60.7"/>
<polygon fill="#528b8b" stroke="#528b8b" stroke-width="2" points="131.72,-58.79 123.51,-52.1 125.76,-62.46 131.72,-58.79"/>
</g>
</g>
</svg>
